<?xml version="1.0" encoding="UTF-8"?>
<svg xmlns="http://www.w3.org/2000/svg" xmlns:xlink="http://www.w3.org/1999/xlink" width="14pt" height="14pt" viewBox="0 0 14 14" version="1.1">
<g id="surface1">
<path style=" stroke:none;fill-rule:nonzero;fill:rgb(100%,100%,100%);fill-opacity:1;" d="M 11.273438 1.722656 C 11.152344 1.335938 10.894531 0.9375 10.566406 0.742188 C 10.320312 0.550781 10.023438 0.503906 9.765625 0.503906 C 9.480469 0.503906 9.222656 0.601562 8.96875 0.742188 C 8.628906 0.980469 8.390625 1.316406 8.261719 1.722656 L 7.074219 4.019531 L 5.863281 1.722656 C 5.730469 1.335938 5.484375 0.9375 5.15625 0.734375 C 4.910156 0.542969 4.605469 0.492188 4.347656 0.492188 C 4.058594 0.492188 3.804688 0.59375 3.550781 0.734375 C 3.128906 0.929688 2.914062 1.269531 2.742188 1.722656 L 0.179688 6.859375 C -0.03125 7.296875 -0.0664062 7.839844 0.015625 8.324219 C 0.105469 8.8125 0.394531 9.265625 0.78125 9.503906 C 1.160156 9.742188 1.621094 9.839844 2.042969 9.691406 C 2.453125 9.542969 2.808594 9.257812 3.054688 8.804688 L 4.316406 6.210938 L 5.574219 8.804688 C 5.789062 9.238281 6.152344 9.585938 6.589844 9.691406 C 6.96875 9.792969 7.386719 9.792969 7.726562 9.542969 L 7.765625 9.542969 C 7.765625 9.542969 7.808594 9.542969 7.808594 9.496094 C 7.847656 9.496094 7.847656 9.445312 7.898438 9.445312 C 7.988281 9.394531 8.019531 9.347656 8.113281 9.257812 L 8.152344 9.207031 L 8.195312 9.15625 L 8.234375 9.109375 L 8.277344 9.058594 L 8.316406 9.007812 L 8.359375 8.960938 C 8.359375 8.960938 8.359375 8.910156 8.398438 8.910156 L 9.660156 6.316406 L 10.921875 8.910156 C 11.132812 9.347656 11.496094 9.691406 11.933594 9.800781 C 12.34375 9.949219 12.824219 9.847656 13.191406 9.609375 C 13.992188 9.082031 14.246094 7.90625 13.769531 7.015625 Z M 11.273438 1.722656 "/>
</g>
</svg>
